<svg xmlns="http://www.w3.org/2000/svg" viewBox="0 0 1200 630">
  <defs>
    <linearGradient id="bg" x1="0%" y1="0%" x2="100%" y2="100%">
      <stop offset="0%" style="stop-color:#5b21b6"/>
      <stop offset="100%" style="stop-color:#7c3aed"/>
    </linearGradient>
  </defs>
  <rect width="1200" height="630" fill="url(#bg)"/>
  <rect x="80" y="80" width="1040" height="470" rx="24" fill="rgba(255,255,255,0.08)"/>
  <circle cx="600" cy="220" r="12" fill="rgba(255,255,255,0.9)"/><circle cx="540" cy="260" r="12" fill="rgba(255,255,255,0.9)"/><circle cx="660" cy="260" r="12" fill="rgba(255,255,255,0.9)"/><circle cx="520" cy="200" r="12" fill="rgba(255,255,255,0.9)"/><circle cx="680" cy="200" r="12" fill="rgba(255,255,255,0.9)"/><circle cx="560" cy="300" r="12" fill="rgba(255,255,255,0.9)"/><circle cx="640" cy="300" r="12" fill="rgba(255,255,255,0.9)"/><line x1="520" y1="200" x2="600" y2="220" stroke="rgba(255,255,255,0.5)" stroke-width="3"/><line x1="680" y1="200" x2="600" y2="220" stroke="rgba(255,255,255,0.5)" stroke-width="3"/><line x1="600" y1="220" x2="540" y2="260" stroke="rgba(255,255,255,0.5)" stroke-width="3"/><line x1="600" y1="220" x2="660" y2="260" stroke="rgba(255,255,255,0.5)" stroke-width="3"/><line x1="540" y1="260" x2="560" y2="300" stroke="rgba(255,255,255,0.5)" stroke-width="3"/><line x1="540" y1="260" x2="640" y2="300" stroke="rgba(255,255,255,0.5)" stroke-width="3"/><line x1="660" y1="260" x2="560" y2="300" stroke="rgba(255,255,255,0.5)" stroke-width="3"/><line x1="660" y1="260" x2="640" y2="300" stroke="rgba(255,255,255,0.5)" stroke-width="3"/><line x1="520" y1="200" x2="540" y2="260" stroke="rgba(255,255,255,0.5)" stroke-width="3"/><line x1="680" y1="200" x2="660" y2="260" stroke="rgba(255,255,255,0.5)" stroke-width="3"/>
  <text x="600" y="430" font-family="system-ui, -apple-system, sans-serif" font-size="44" font-weight="700" fill="white" text-anchor="middle" opacity="0.95">ML ZoomCamp — Week 5</text>
</svg>
