<svg xmlns="http://www.w3.org/2000/svg" viewBox="0 0 1200 630">
  <defs>
    <linearGradient id="bg" x1="0%" y1="0%" x2="100%" y2="100%">
      <stop offset="0%" style="stop-color:#0369a1"/>
      <stop offset="100%" style="stop-color:#0284c7"/>
    </linearGradient>
  </defs>
  <rect width="1200" height="630" fill="url(#bg)"/>
  <rect x="80" y="80" width="1040" height="470" rx="24" fill="rgba(255,255,255,0.08)"/>
  <path d="M540 230 A40 40 0 0 1 580 200 A50 50 0 0 1 660 210 A35 35 0 0 1 680 260 L520 260 A30 30 0 0 1 540 230Z" fill="rgba(255,255,255,0.9)"/><line x1="600" y1="270" x2="600" y2="320" stroke="rgba(255,255,255,0.7)" stroke-width="4"/><polygon points="590,315 600,330 610,315" fill="rgba(255,255,255,0.7)"/><rect x="580" y="320" width="40" height="8" rx="4" fill="rgba(255,255,255,0.5)"/>
  <text x="600" y="430" font-family="system-ui, -apple-system, sans-serif" font-size="44" font-weight="700" fill="white" text-anchor="middle" opacity="0.95">NATS Edge to Cloud</text>
</svg>
