<svg xmlns="http://www.w3.org/2000/svg" viewBox="0 0 1200 630">
  <defs>
    <linearGradient id="bg" x1="0%" y1="0%" x2="100%" y2="100%">
      <stop offset="0%" style="stop-color:#047857"/>
      <stop offset="100%" style="stop-color:#059669"/>
    </linearGradient>
  </defs>
  <rect width="1200" height="630" fill="url(#bg)"/>
  <rect x="80" y="80" width="1040" height="470" rx="24" fill="rgba(255,255,255,0.08)"/>
  <rect x="480" y="210" width="60" height="60" rx="8" fill="rgba(255,255,255,0.9)"/><rect x="570" y="210" width="60" height="60" rx="8" fill="rgba(255,255,255,0.9)"/><rect x="660" y="210" width="60" height="60" rx="8" fill="rgba(255,255,255,0.9)"/><line x1="540" y1="240" x2="570" y2="240" stroke="rgba(255,255,255,0.9)" stroke-width="4"/><line x1="630" y1="240" x2="660" y2="240" stroke="rgba(255,255,255,0.9)" stroke-width="4"/><polygon points="565,235 570,240 565,245" fill="rgba(255,255,255,0.9)"/><polygon points="655,235 660,240 655,245" fill="rgba(255,255,255,0.9)"/><circle cx="510" cy="300" r="8" fill="rgba(255,255,255,0.5)"/><circle cx="600" cy="300" r="8" fill="rgba(255,255,255,0.5)"/><circle cx="690" cy="300" r="8" fill="rgba(255,255,255,0.5)"/><line x1="510" y1="270" x2="510" y2="292" stroke="rgba(255,255,255,0.4)" stroke-width="2" stroke-dasharray="4,4"/><line x1="600" y1="270" x2="600" y2="292" stroke="rgba(255,255,255,0.4)" stroke-width="2" stroke-dasharray="4,4"/><line x1="690" y1="270" x2="690" y2="292" stroke="rgba(255,255,255,0.4)" stroke-width="2" stroke-dasharray="4,4"/>
  <text x="600" y="430" font-family="system-ui, -apple-system, sans-serif" font-size="44" font-weight="700" fill="white" text-anchor="middle" opacity="0.95">MLOps ZoomCamp — Week 6</text>
</svg>
