<svg xmlns="http://www.w3.org/2000/svg" viewBox="0 0 1200 630">
  <defs>
    <linearGradient id="bg" x1="0%" y1="0%" x2="100%" y2="100%">
      <stop offset="0%" style="stop-color:#5b21b6"/>
      <stop offset="100%" style="stop-color:#7c3aed"/>
    </linearGradient>
  </defs>
  <rect width="1200" height="630" fill="url(#bg)"/>
  <rect x="80" y="80" width="1040" height="470" rx="24" fill="rgba(255,255,255,0.08)"/>
  <rect x="555" y="195" width="90" height="90" rx="8" fill="rgba(255,255,255,0.9)"/><circle cx="600" cy="240" r="20" fill="rgba(124,58,237,0.8)"/><line x1="555" y1="220" x2="530" y2="220" stroke="rgba(255,255,255,0.7)" stroke-width="4"/><line x1="555" y1="240" x2="530" y2="240" stroke="rgba(255,255,255,0.7)" stroke-width="4"/><line x1="555" y1="260" x2="530" y2="260" stroke="rgba(255,255,255,0.7)" stroke-width="4"/><line x1="645" y1="220" x2="670" y2="220" stroke="rgba(255,255,255,0.7)" stroke-width="4"/><line x1="645" y1="240" x2="670" y2="240" stroke="rgba(255,255,255,0.7)" stroke-width="4"/><line x1="645" y1="260" x2="670" y2="260" stroke="rgba(255,255,255,0.7)" stroke-width="4"/><line x1="580" y1="195" x2="580" y2="170" stroke="rgba(255,255,255,0.7)" stroke-width="4"/><line x1="600" y1="195" x2="600" y2="170" stroke="rgba(255,255,255,0.7)" stroke-width="4"/><line x1="620" y1="195" x2="620" y2="170" stroke="rgba(255,255,255,0.7)" stroke-width="4"/><line x1="580" y1="285" x2="580" y2="310" stroke="rgba(255,255,255,0.7)" stroke-width="4"/><line x1="600" y1="285" x2="600" y2="310" stroke="rgba(255,255,255,0.7)" stroke-width="4"/><line x1="620" y1="285" x2="620" y2="310" stroke="rgba(255,255,255,0.7)" stroke-width="4"/>
  <text x="600" y="430" font-family="system-ui, -apple-system, sans-serif" font-size="44" font-weight="700" fill="white" text-anchor="middle" opacity="0.95">ML at the Edge</text>
</svg>
